<svg xmlns="http://www.w3.org/2000/svg" width="21" height="20" fill="none" viewBox="0 0 21 20">
    <path fill="#BCC2D0" d="M15.202 10c0 2.761-2.238 5-5 5-2.761 0-5-2.239-5-5s2.239-5 5-5c2.762 0 5 2.239 5 5zm-7.5 0c0 1.38 1.12 2.5 2.5 2.5s2.5-1.12 2.5-2.5-1.12-2.5-2.5-2.5-2.5 1.12-2.5 2.5z"/>
    <path fill="#BCC2D0" d="M20.202 10c0 5.523-4.477 10-10 10s-10-4.477-10-10 4.477-10 10-10 10 4.477 10 10zm-17.6 0c0 4.197 3.403 7.6 7.6 7.6 4.197 0 7.6-3.403 7.6-7.6 0-4.197-3.402-7.6-7.6-7.6-4.197 0-7.6 3.403-7.6 7.6z"/>
</svg>
