<svg xmlns="http://www.w3.org/2000/svg" width="90" height="77" fill="none" viewBox="0 0 90 77">
    <rect width="90" height="77" fill="#F2F5FA" fill-opacity=".5" rx="12"/>
    <g clip-path="url(#clip0)">
        <path fill="#E6E9ED" d="M34.312 40.087v11.23h-5.78v-3.12h-3.21V20.121h8.99v19.966z"/>
        <path fill="#CCD1D9" d="M34.312 29.478h-4.495c-.355 0-.642-.278-.642-.624 0-.345.287-.623.642-.623h4.495c.356 0 .643.278.643.623 0 .346-.287.624-.643.624zM34.312 33.22h-4.495c-.355 0-.642-.278-.642-.623 0-.346.287-.624.642-.624h4.495c.356 0 .643.278.643.624 0 .345-.287.623-.643.623zM34.312 36.967h-4.495c-.355 0-.642-.28-.642-.624 0-.346.287-.624.642-.624h4.495c.356 0 .643.279.643.624s-.287.624-.643.624zM34.312 40.709h-4.495c-.355 0-.642-.279-.642-.624s.287-.624.642-.624h4.495c.356 0 .643.279.643.624s-.287.624-.643.624z"/>
        <path fill="#F5F7FA" d="M28.532 48.195v3.12l-3.21-3.12h3.21z"/>
        <path fill="#009CA2" d="M36.88 53.814h22.477v-1.872h.642c1.066 0 1.927-.836 1.927-1.872v3.744c0 1.036-.86 1.872-1.927 1.872H36.24c-1.067 0-1.927-.836-1.927-1.872 0-1.03.86-1.872 1.926-1.872h.642v1.872z"/>
        <path fill="#F5F7FA" d="M36.88 51.938h22.478v1.871H36.88v-1.871z"/>
        <path fill="#009CA2" d="M64.495 20.121v8.111l-2.57 2.496V20.12h2.57z"/>
        <path fill="#9ADBDE" d="M60 17H36.237c-1.066 0-1.926.836-1.926 1.872v34.94c0-1.03.86-1.873 1.926-1.873H60c1.066 0 1.927-.836 1.927-1.871V18.872c0-1.036-.86-1.872-1.927-1.872zM42.66 33.858c-1.066 0-1.927-.836-1.927-1.871h3.854c0 1.035-.867 1.871-1.927 1.871zm11.553 0c-1.066 0-1.926-.836-1.926-1.871h3.853c0 1.035-.861 1.871-1.927 1.871z"/>
        <path fill="#545C66" d="M44.583 32.612c-.269 0-.52-.166-.609-.427l-1.926-5.617c-.112-.326.07-.68.406-.79.338-.11.7.069.812.396l1.927 5.616c.112.327-.07.68-.406.79-.068.022-.136.032-.204.032zM48.437 39.475c-.355 0-.642-.278-.642-.623V24.498c0-.345.287-.624.642-.624.355 0 .642.279.642.624v14.353c0 .345-.287.623-.642.623zM52.289 32.612c-.067 0-.136-.01-.204-.032-.335-.11-.518-.462-.405-.79l1.926-5.616c.113-.327.472-.505.813-.396.336.11.518.463.405.79l-1.926 5.617c-.09.261-.34.427-.61.427z"/>
        <path fill="#545C66" d="M56.142 32.612c-.27 0-.52-.166-.609-.427l-1.927-5.617c-.112-.326.07-.68.406-.79.339-.11.7.069.813.396l1.926 5.616c.113.327-.07.68-.405.79-.069.022-.137.032-.204.032z"/>
        <path fill="#656D78" d="M53.575 39.474H43.299c-.355 0-.642-.278-.642-.623s.287-.624.642-.624h10.276c.354 0 .642.279.642.623 0 .346-.288.624-.642.624z"/>
        <path fill="#009CA2" d="M56.146 43.842H40.728c-.355 0-.642-.28-.642-.624 0-.346.287-.624.642-.624h15.418c.355 0 .642.279.642.624 0 .344-.287.624-.642.624zM52.293 45.713h-7.71c-.356 0-.643-.28-.643-.624 0-.345.287-.624.643-.624h7.71c.355 0 .642.279.642.624s-.287.624-.642.624z"/>
        <path fill="#545C66" d="M40.73 32.612c-.067 0-.136-.01-.203-.032-.336-.11-.518-.462-.406-.79l1.927-5.616c.112-.327.472-.505.812-.396.336.11.518.463.406.79l-1.927 5.617c-.09.261-.34.427-.609.427z"/>
        <path fill="#656D78" d="M44.583 31.363H40.73c-.355 0-.642.279-.642.624 0 1.376 1.152 2.496 2.569 2.496 1.416 0 2.568-1.12 2.568-2.496 0-.345-.287-.624-.642-.624zM56.142 31.363h-3.853c-.356 0-.642.279-.642.624 0 1.376 1.151 2.496 2.568 2.496s2.569-1.12 2.569-2.496c0-.345-.287-.624-.642-.624zM54.215 26.994H42.657c-.355 0-.642-.28-.642-.624 0-.345.287-.624.642-.624h11.558c.355 0 .642.279.642.624s-.287.624-.642.624z"/>
    </g>
    <defs>
        <clipPath id="clip0">
            <path fill="#fff" d="M0 0H39.816V38.683H0z" transform="translate(25 17)"/>
        </clipPath>
    </defs>
</svg>
