<svg xmlns="http://www.w3.org/2000/svg" width="90" height="77" fill="none" viewBox="0 0 90 77">
    <rect width="90" height="77" fill="#F2F5FA" fill-opacity=".5" rx="12"/>
    <g clip-path="url(#clip0)">
        <path fill="#F9D29D" d="M62.262 23.018v29.765c0 .682-.553 1.235-1.235 1.235H33.321c-.682 0-1.235-.553-1.235-1.235l-.01-35.625c-.002-.328.128-.642.36-.874.232-.232.546-.362.874-.362h21.856c.206 0 .405.05.583.146.106.056.203.129.29.215l5.86 5.861c.14.14.243.308.302.492.04.122.061.25.061.382z"/>
        <path fill="#FFBC5E" d="M62.201 22.636c-.059-.184-.162-.352-.301-.492l-5.86-5.86c-.087-.087-.185-.16-.29-.216-.178-.095-.378-.146-.584-.146H45.128v38.096h15.9c.68 0 1.234-.553 1.234-1.235V23.018c0-.131-.02-.26-.06-.382z"/>
        <path fill="#FF9500" d="M62.202 22.63l-5.081-.016c-.758-.003-1.371-.617-1.371-1.376v-5.175c.105.056.203.128.29.215l5.86 5.86c.14.14.243.308.302.492z"/>
        <path fill="#9ADBDE" d="M36.249 41.129c-4.628 0-8.394 3.765-8.394 8.393s3.766 8.394 8.394 8.394 8.393-3.766 8.393-8.394-3.765-8.393-8.393-8.393z"/>
        <path fill="#FFC16A" d="M48.682 29.513h-9.194c-.682 0-1.235-.553-1.235-1.235s.553-1.235 1.235-1.235h9.194c.682 0 1.235.553 1.235 1.235s-.553 1.235-1.235 1.235z"/>
        <path fill="#FF9500" d="M48.682 27.043h-3.554v2.47h3.554c.682 0 1.235-.553 1.235-1.235s-.553-1.235-1.235-1.235z"/>
        <path fill="#FFC16A" d="M54.363 34.369H39.488c-.682 0-1.235-.553-1.235-1.236 0-.682.553-1.235 1.235-1.235h14.875c.682 0 1.235.553 1.235 1.235 0 .683-.552 1.236-1.235 1.236z"/>
        <path fill="#FF9500" d="M54.363 31.898h-9.235v2.47h9.235c.682 0 1.235-.552 1.235-1.235 0-.682-.553-1.235-1.235-1.235z"/>
        <path fill="#FFC16A" d="M54.363 39.228H39.488c-.682 0-1.235-.553-1.235-1.235s.553-1.235 1.235-1.235h14.875c.682 0 1.235.553 1.235 1.235s-.552 1.235-1.235 1.235z"/>
        <path fill="#FF9500" d="M54.363 36.758h-9.235v2.47h9.235c.682 0 1.235-.553 1.235-1.235s-.553-1.235-1.235-1.235z"/>
        <path fill="#009CA2" d="M34.8 53.151c-.345 0-.689-.144-.933-.426l-2.547-2.937c-.447-.515-.392-1.295.123-1.742.516-.447 1.296-.392 1.743.124l1.763 2.033 4.198-3.418c.528-.43 1.306-.351 1.737.178.43.53.35 1.307-.178 1.738l-5.126 4.173c-.229.186-.505.277-.78.277z"/>
    </g>
    <defs>
        <clipPath id="clip0">
            <path fill="#fff" d="M0 0H42V42H0z" transform="translate(24 16)"/>
        </clipPath>
    </defs>
</svg>
