<svg xmlns="http://www.w3.org/2000/svg" width="90" height="77" fill="none" viewBox="0 0 90 77">
    <rect width="90" height="77" fill="#F2F5FA" fill-opacity=".5" rx="12"/>
    <path fill="#E6FFFF" d="M58.515 53.581c0-.729.758-1.545 1.017-1.768l-27.524-1.098c-.682.761-1.098 1.766-1.098 2.866s.416 2.105 1.098 2.866l27.53-1.092c-.265-.228-1.023-1.045-1.023-1.774z"/>
    <path fill="#009EA2" fill-opacity=".2" d="M59.533 51.816l-14.531-.597v4.733l14.537-.593c-.265-.23-1.023-1.046-1.023-1.775 0-.729.758-1.545 1.017-1.768z"/>
    <path fill="#9ADBDE" d="M33.3 52.146h7.4l4.302.956 4.297-.956h10.268c.791 0 1.433-.642 1.433-1.433v-32.28c0-.791-.642-1.433-1.433-1.433H33.3c-2.371 0-4.3 1.929-4.3 4.3v32.28c0 2.37 1.929 4.299 4.3 4.299h26.267c.791 0 1.433-.642 1.433-1.433 0-.792-.642-1.434-1.433-1.434H33.3c-.79 0-1.434-.643-1.434-1.433s.643-1.433 1.434-1.433z"/>
    <path fill="#009CA2" d="M59.567 55.012H45.002v2.866h14.565c.791 0 1.433-.642 1.433-1.433 0-.792-.642-1.433-1.433-1.433zM59.567 17H45.002v36.102l4.297-.956h10.268c.791 0 1.433-.642 1.433-1.433v-32.28c0-.791-.642-1.433-1.433-1.433z"/>
    <path fill="#F9D29D" d="M40.7 52.145v7.806c0 .461.222.894.595 1.163.374.27.855.343 1.292.197L45 60.507l2.413.804c.148.05.3.074.453.074.297 0 .59-.093.838-.271.374-.27.595-.702.595-1.163v-7.806H40.7z"/>
    <path fill="#FFBC5E" d="M45.002 52.145v8.362l2.41.804c.149.05.302.074.454.074.297 0 .591-.093.838-.271.374-.27.595-.702.595-1.163v-7.806h-4.297z"/>
    <path fill="#E6FFFF" d="M43.566 31.331h-7.4c-.792 0-1.434-.642-1.434-1.433s.642-1.433 1.434-1.433h7.4c.792 0 1.434.642 1.434 1.433s-.642 1.433-1.434 1.433zM43.566 25.6h-7.4c-.792 0-1.434-.641-1.434-1.433 0-.79.642-1.433 1.434-1.433h7.4c.792 0 1.434.642 1.434 1.433 0 .792-.642 1.434-1.434 1.434zM53.834 34.203H36.166c-.792 0-1.434.642-1.434 1.433v5.733c0 .792.642 1.434 1.434 1.434h17.668c.38 0 .744-.151 1.013-.42.27-.269.42-.633.42-1.014v-5.733c0-.791-.642-1.433-1.433-1.433z"/>
    <path fill="#009EA2" fill-opacity=".2" d="M53.834 34.203h-8.832v8.6h8.832c.38 0 .745-.151 1.013-.42.27-.269.42-.633.42-1.014v-5.733c0-.791-.642-1.433-1.433-1.433z"/>
</svg>
